<?xml version="1.0" encoding="UTF-8" standalone="no"?>
<svg
   xmlns:dc="http://purl.org/dc/elements/1.1/"
   xmlns:cc="http://creativecommons.org/ns#"
   xmlns:rdf="http://www.w3.org/1999/02/22-rdf-syntax-ns#"
   xmlns:svg="http://www.w3.org/2000/svg"
   xmlns="http://www.w3.org/2000/svg"
   xmlns:sodipodi="http://sodipodi.sourceforge.net/DTD/sodipodi-0.dtd"
   xmlns:inkscape="http://www.inkscape.org/namespaces/inkscape"
   version="1.1"
   id="Layer_1"
   x="0px"
   y="0px"
   width="99.21px"
   height="99.21px"
   viewBox="0 0 99.21 99.21"
   enable-background="new 0 0 99.21 99.21"
   xml:space="preserve"
   inkscape:version="0.48.4 r9939"
   sodipodi:docname="icon_16366.svg"><metadata
   id="metadata3025"><rdf:RDF><cc:Work
       rdf:about=""><dc:format>image/svg+xml</dc:format><dc:type
         rdf:resource="http://purl.org/dc/dcmitype/StillImage" /><dc:title></dc:title></cc:Work></rdf:RDF></metadata><defs
   id="defs3023" /><sodipodi:namedview
   pagecolor="#ffffff"
   bordercolor="#666666"
   borderopacity="1"
   objecttolerance="10"
   gridtolerance="10"
   guidetolerance="10"
   inkscape:pageopacity="0"
   inkscape:pageshadow="2"
   inkscape:window-width="1366"
   inkscape:window-height="721"
   id="namedview3021"
   showgrid="false"
   inkscape:zoom="2.3787925"
   inkscape:cx="49.605"
   inkscape:cy="49.605"
   inkscape:window-x="-4"
   inkscape:window-y="-4"
   inkscape:window-maximized="1"
   inkscape:current-layer="Layer_1" />
<g
   id="g3015"
   style="fill:#008080">
	<g
   id="g3017"
   style="fill:#008080">
		<path
   d="M50.615,69.593c3.473,4.397,8.859,7.232,14.928,7.232c10.466,0,18.957-8.416,18.957-18.792    c0-9.956-7.814-18.08-17.691-18.729c0.019,0.507,0.037,1.018,0.037,1.528C66.846,52.994,60.353,63.651,50.615,69.593z     M65.543,29.474c-0.225,0-0.45,0.012-0.676,0.017c0.458,1.268,0.838,2.568,1.138,3.9c13.505,0.248,24.417,11.196,24.417,24.642    c0,13.599-11.16,24.666-24.879,24.666c-8.382,0-15.792-4.143-20.301-10.456c-1.264,0.492-2.561,0.921-3.895,1.263    c5.138,7.867,14.06,13.087,24.196,13.087c15.885,0,28.807-12.813,28.807-28.56C94.35,42.285,81.428,29.474,65.543,29.474z     M61.615,40.832c0-15.748-12.924-28.559-28.809-28.559c-15.885,0-28.809,12.811-28.809,28.559    c0,15.749,12.923,28.559,28.809,28.559C48.691,69.391,61.615,56.581,61.615,40.832z M32.806,65.496    c-13.72,0-24.879-11.063-24.879-24.664c0-13.6,11.159-24.664,24.879-24.664c13.718,0,24.88,11.064,24.88,24.664    C57.687,54.433,46.524,65.496,32.806,65.496z M32.806,22.041c-10.47,0-18.957,8.413-18.957,18.791    c0,10.377,8.487,18.794,18.957,18.794c10.467,0,18.955-8.417,18.955-18.794C51.761,30.454,43.273,22.041,32.806,22.041z"
   id="path3019"
   style="fill:#008080" />
	</g>
</g>
</svg>